<svg width="42" height="46" viewBox="0 0 42 46" fill="none" xmlns="http://www.w3.org/2000/svg">
<path fill-rule="evenodd" clip-rule="evenodd" d="M38.0743 44.9407C35.8406 45.1174 33.9577 43.3078 31.6659 43.4119C30.1677 43.4805 28.6312 44.1175 26.5395 44.7118C25.7897 44.9243 23.4296 45.6887 20.8466 45.6467C18.419 45.6073 15.7629 44.775 15.0036 44.5475C13.1922 44.0054 11.8003 43.4739 10.4397 43.4122C8.14831 43.3082 6.26502 45.1177 4.03165 44.9411C1.1098 44.7107 0.973633 42.942 0.973633 42.942C6.14675 44.4117 5.11767 41.0891 10.1455 41.0599C15.0587 41.0314 15.5939 43.2717 21.0532 43.4038C26.5125 43.2717 27.0473 41.0314 31.9609 41.0599C36.9869 41.0891 35.9578 44.4121 41.1324 42.942C41.132 42.942 40.9944 44.7107 38.0743 44.9407ZM34.6053 40.9135C33.7788 40.6787 32.9122 40.5513 32.0182 40.5513C31.1888 40.5513 30.3817 40.6598 29.6081 40.8616V35.798H13.1437V40.943C12.2869 40.6897 11.3845 40.5517 10.4547 40.5517C9.59793 40.5517 8.76561 40.6674 7.97017 40.8832V35.798H6.6173V29.9766H10.8508V25.611H11.8496L5.25165 8.01521L5.7357 7.97104L5.79886 8.11523L5.79995 7.8973L6.94584 7.41251L7.1729 7.49684L16.0765 25.611H17.0694V29.9766H20.0737L24.6843 15.3352H23.7724V13.7479H24.7424V10.4848H25.0078V10.3088H28.8003V10.4848H28.9762V13.7479H30.2115V15.1589V15.3348H28.9463L33.5565 29.9762H35.5471V35.7977H34.606V40.9135H34.6053ZM10.4989 30.5935H7.32294V31.1816H10.4989V30.5935ZM10.4989 31.5346H7.32294V32.402H10.4989V31.5346ZM10.4989 33.1073H7.32294V33.7691H10.4989V33.1073ZM10.4989 34.1214H7.32294V34.9153H10.4989V34.1214ZM27.3441 34.9153H30.5189V34.1214H27.3441V34.9153ZM27.3441 33.7691H30.5189V33.1073H27.3441V33.7691ZM27.3441 32.402H30.5189V31.5346H27.3441V32.402ZM27.3441 31.1816H30.5189V30.5935H27.3441V31.1816ZM23.3172 34.9153H26.4917V34.1214H23.3172V34.9153ZM23.3172 33.7691H26.4917V33.1073H23.3172V33.7691ZM23.3172 32.402H26.4917V31.5346H23.3172V32.402ZM23.3172 31.1816H26.4917V30.5935H23.3172V31.1816ZM19.2152 34.9153H22.39V34.1214H19.2152V34.9153ZM19.2152 33.7691H22.39V33.1073H19.2152V33.7691ZM19.2152 32.402H22.39V31.5346H19.2152V32.402ZM11.1892 34.9153H14.3636V34.1214H11.1892V34.9153ZM11.1892 33.7691H14.3636V33.1073H11.1892V33.7691ZM11.1892 32.402H14.3636V31.5346H11.1892V32.402ZM11.1892 30.5935V31.1816H14.3636V30.5935H11.1892ZM13.14 25.0338L14.4454 23.524L12.4548 23.4557L13.14 25.0338ZM11.2706 20.7251L12.2869 19.2481L10.6004 19.1839L11.2706 20.7251ZM10.3393 18.5816L11.2374 17.2185L9.72168 17.1571L10.3393 18.5816ZM9.4384 16.5044L10.1371 15.1687L8.78241 14.9924L9.4384 16.5044ZM8.47394 14.2813L9.1825 13.1474L7.93075 13.0303L8.47394 14.2813ZM7.61425 12.3005L8.14393 11.0375L6.89875 10.6512L7.61425 12.3005ZM6.55524 9.86127L7.04514 8.76685L5.85507 8.24592L6.55524 9.86127ZM6.92941 7.80092L6.31321 8.06157L7.26088 8.4759L6.92941 7.80092ZM7.41895 8.79678L6.77098 10.2427L8.37355 10.7381L7.41895 8.79678ZM8.52358 11.0437L7.84277 12.6678L9.39313 12.8123L8.52358 11.0437ZM9.57602 13.1843L8.67654 14.6233L10.3934 14.8467L9.57602 13.1843ZM10.543 15.1523L9.68043 16.8019L11.3889 16.8717L10.543 15.1523ZM11.602 17.3065L10.5963 18.832L12.3847 18.8992L11.602 17.3065ZM12.6224 19.3832L11.5648 20.9182L13.4561 21.0781L12.6224 19.3832ZM11.5042 21.2672L12.2566 22.9983L13.5054 21.4355L11.5042 21.2672ZM13.7562 21.6881L12.6187 23.1089L14.4867 23.1739L13.7562 21.6881ZM14.7506 23.7112L13.2955 25.393L13.3904 25.6106H15.6848L14.7506 23.7112ZM18.3774 30.5935H15.2029V31.1816H18.3774V30.5935ZM18.3774 31.5346H15.2029V32.402H18.3774V31.5346ZM18.3774 33.1073H15.2029V33.7691H18.3774V33.1073ZM18.3774 34.1214H15.2029V34.9153H18.3774V34.1214ZM19.2152 30.5935V31.1816H22.39V30.5935H19.2152ZM20.8137 29.9766H26.507V28.4178L22.2483 25.4211L20.8137 29.9766ZM22.3582 25.0681L26.5066 27.9863V22.3624L22.3776 25.0097L22.3582 25.0681ZM22.5422 24.4855L26.3084 22.0707L23.8272 20.4072L22.5422 24.4855ZM23.9374 20.0564L26.507 21.7776V18.1731L24.0382 19.7384L23.9374 20.0564ZM24.2014 19.2157L26.5066 17.7551V15.3348H25.4243L24.2014 19.2157ZM26.6826 12.3378H25.1833V11.984H26.6826V10.6615H25.0939V13.7476H26.6826V12.3378ZM28.6236 10.6615H27.0363V11.984H28.6236V10.6615ZM28.6236 12.3378H27.0363V13.7476H28.6236V12.3378ZM28.2056 15.3348H27.2123V17.7073L29.4073 19.1514L28.2056 15.3348ZM29.5753 19.6844L27.2123 18.1293V21.4906L29.6508 19.926L29.5753 19.6844ZM29.7611 20.275L27.2123 21.9097V22.251L31.2315 24.9455L29.7611 20.275ZM27.2123 22.676V27.9243L31.3786 25.4686L27.2123 22.676ZM31.5023 25.8059L27.2127 28.3335V29.9766H32.8162L31.5023 25.8059ZM34.6206 30.5935H31.4447V31.1816H34.6206V30.5935ZM34.6206 31.5346H31.4447V32.402H34.6206V31.5346ZM34.6206 33.1073H31.4447V33.7691H34.6206V33.1073ZM34.6206 34.9153V34.1214H31.4447V34.9153H34.6206ZM5.22792 3.2703C4.74532 2.41864 4.79205 1.19024 5.77002 0.172852C5.77002 0.172852 5.10417 1.4195 5.78535 2.26349C6.4658 3.10785 6.3906 4.86775 5.73972 5.44271C5.73935 5.44271 5.71234 4.12196 5.22792 3.2703ZM3.45633 2.91693C4.80884 3.32505 5.4506 4.3742 5.44512 5.35327C5.43965 6.33269 6.06279 7.4983 6.06279 7.4983C5.21405 7.31431 4.28719 5.81761 4.46716 4.74802C4.64895 3.67842 3.45633 2.91693 3.45633 2.91693Z" fill="white"/>
</svg>
