<svg width="14" height="46" viewBox="0 0 14 46" fill="none" xmlns="http://www.w3.org/2000/svg">
<path fill-rule="evenodd" clip-rule="evenodd" d="M13.5242 45.2472H13.5277L13.5303 45.0931L9.30051 44.7011L9.22121 41.9313L12.7635 39.0049L13.2576 44.8738L13.5756 44.8475L13.0676 38.8204H13.4693V38.5612H13.0458L11.1427 15.9613L11.6097 15.8995L11.1235 15.7395L11.0015 14.2839V13.6929L10.9501 13.6836L10.0456 2.93316C10.1022 2.91962 10.1658 2.88744 10.1911 2.807C10.2425 2.64611 9.2186 2.3235 9.2186 2.3235L9.05913 1.75532L8.31495 1.49622C8.31495 1.49622 8.35678 0.90942 8.19818 0.90942C8.03871 0.90942 7.57164 0.670637 7.57164 0.670637L7.51848 0L6.50853 0.051656L6.40222 0.878088L5.71206 0.929744V1.34295L4.80841 1.44626L4.81016 1.99411C4.81016 1.99411 4.1627 2.08386 3.99365 2.28454C3.97274 2.31079 3.98493 2.34806 4.0224 2.39463L3.46733 8.98915L3.44554 8.9917L3.46558 9.00101L2.92095 15.466L2.31097 15.5405L2.89917 15.731L0.975976 38.5646H0.504546L0.557699 38.8237H0.95419L0.426116 45.1033L0.901908 45.1414L1.43347 38.8237H5.10905L5.04718 41.7569L0.998634 45.0254L1.07444 45.1151L5.04457 41.9102L4.98096 44.928L0.447031 45.199V45.276H0V45.9212H1.38118V45.4013L4.54263 45.5648V45.9212H5.7382V45.6249L6.1103 45.6452V45.8704H8.05004V45.5698L8.55459 45.5402V46H9.75016V45.4716L12.8044 45.2929V45.8958H14V45.2506H13.5242V45.2472ZM8.98157 44.6833L7.61783 44.7646L7.59081 43.2777L8.91012 42.1887L8.98157 44.6833ZM6.66625 44.823L5.64845 44.8831L6.66015 44.0491L6.66625 44.823ZM7.51935 39.2852L7.65617 38.8195H8.68356L7.5272 39.7526L7.51935 39.2852ZM3.33487 16.2662L5.52733 19.2832L5.44977 22.9445L2.75539 23.1588L3.33487 16.2662ZM10.2591 9.27028L8.25831 8.45147L8.18773 5.96455L9.75538 3.29304L10.2591 9.27028ZM8.48139 27.274L7.55595 28.523L7.57774 24.0199L7.80953 23.7354L8.37769 23.6888L8.48139 27.274ZM8.69576 23.6626L11.3152 23.4458L8.78725 26.8582L8.69576 23.6626ZM3.00984 38.1954V37.8432H3.67994V38.1954H3.00984ZM3.67994 38.2734V38.5604H3.00984V38.2734H3.67994ZM2.26043 37.4139H2.93054V37.7662H2.26043V37.4139ZM2.18026 37.7662H1.52496L1.55546 37.4139H2.18113V37.7662H2.18026ZM3.00984 37.4139H3.67994V37.7662H3.00984V37.4139ZM11.2699 37.4139L11.6272 37.7662H11.2664V37.4139H11.2699ZM12.6859 38.1954H12.231L12.0167 37.9846V37.8432H12.6659L12.6868 38.0879V38.1954H12.6859ZM11.9365 38.0701V38.1954H11.2664V37.8432H11.7065L11.9365 38.0701ZM11.8738 37.8432H11.9356V37.905L11.8738 37.8432ZM11.1862 38.1954H10.5161V37.8432H11.1862V38.1954ZM10.4359 38.1954H9.76584V37.8432H10.4359V38.1954ZM9.6848 38.1954H9.11316L9.10357 37.8432H9.6848V38.1954ZM8.27661 38.0151L8.44653 38.1963H8.27225L8.27661 38.0151ZM8.28009 37.8466V37.8432H8.78464L8.7951 38.1954H8.60861L8.28009 37.8466ZM8.79771 38.2734L8.80119 38.3995L8.68269 38.2734H8.79771ZM9.10183 37.7662L9.09137 37.4139H9.6848V37.7662H9.10183ZM8.78203 37.7662H8.28183L8.29055 37.4139H8.77244L8.78203 37.7662ZM5.75912 37.7662H5.45239L5.46023 37.4139H5.73211L5.75912 37.7662ZM5.45152 37.8432H5.76522L5.79136 38.1954H5.44367L5.45152 37.8432ZM8.26528 38.5248L8.27051 38.2734H8.51973L8.79074 38.5604H8.26528V38.5248ZM9.11577 38.2734H9.6848V38.5604H9.12362L9.11577 38.2734ZM9.76584 38.2734H10.4359V38.5604H9.76584V38.2734ZM10.5161 38.2734H11.1862V38.5604H10.5161V38.2734ZM11.2664 38.2734H11.9365V38.5604H11.2664V38.2734ZM12.0167 38.2734H12.1422L12.4341 38.5604H12.0167V38.2734ZM12.0167 38.1954V38.1489L12.0629 38.1954H12.0167ZM12.0167 37.7662V37.4139H12.6293L12.6589 37.7662H12.0167ZM11.9365 37.7662H11.7953L11.4381 37.4139H11.9365V37.7662ZM11.1862 37.7662H10.5161V37.4139H11.1862V37.7662ZM10.4359 37.7662H9.76584V37.4139H10.4359V37.7662ZM9.76584 37.3351V36.9846H10.4359V37.3351H9.76584ZM9.6848 37.3351H9.08876L9.0783 36.9846H9.6848V37.3351ZM8.76983 37.3351H8.29229L8.30014 36.9846H8.75937L8.76983 37.3351ZM5.72687 37.3351H5.46284L5.46894 36.9846H5.69986L5.72687 37.3351ZM5.13432 37.7662H4.51127V37.4139H5.14216L5.13432 37.7662ZM4.43022 37.7662H3.76012V37.4139H4.43022V37.7662ZM3.76012 37.8432H4.43022V38.1954H3.76012V37.8432ZM4.51127 37.8432H5.13258L5.12561 38.1954H4.51127V37.8432ZM5.79746 38.2734L5.81925 38.5604H5.43583L5.44193 38.2734H5.79746ZM12.6014 38.5604L12.3103 38.2734H12.6859V38.5604H12.6014ZM12.6232 37.3351H12.0167V36.9846H12.5936L12.6232 37.3351ZM11.9365 37.3351H11.3588L11.2664 37.2454V36.9846H11.9365V37.3351ZM11.1862 37.1666L11.0024 36.9846H11.1862V37.1666ZM11.1862 37.3309V37.3351H10.5161V36.9846H10.8342L11.1862 37.3309ZM9.07569 36.9058L9.02689 35.2047L10.754 36.9058H9.07569ZM8.75763 36.9058H8.30188L8.31669 36.2894L7.51935 36.0303L7.53068 33.728L8.70011 34.8796L8.75763 36.9058ZM7.53068 33.5645L7.54114 31.446L8.59816 31.4062L8.69314 34.7102L7.53068 33.5645ZM4.07905 29.3655V29.7143H3.41504V29.3655H4.07905ZM8.54413 29.4756V29.7143H7.88012V29.3655H8.54152L8.54413 29.4756ZM12.0524 30.5662H11.5975V30.2173H12.0237L12.0524 30.5662ZM11.5191 30.5662H10.8542V30.2173H11.5191V30.5662ZM4.9034 30.6432H5.28508L5.28333 30.7703L4.9034 30.7973V30.6432ZM4.82323 30.8041L4.15922 30.8515V30.6441H4.82323V30.8041ZM6.13208 30.6432H6.31072V30.6957L6.08154 30.7127L6.13208 30.6432ZM5.92556 30.7237L5.64584 30.7432V30.6432H5.98394L5.92556 30.7237ZM6.31072 30.5662H6.1896L6.31072 30.4036V30.5662ZM8.54413 30.534L8.09884 30.5662H7.88012V30.2173H8.54413V30.534ZM7.80082 30.5662H7.54637L7.54812 30.2173H7.80082V30.5662ZM6.04232 30.5662H5.64584V30.2173H6.29939L6.04232 30.5662ZM5.28682 30.5662H4.9034V30.2173H5.29466L5.28682 30.5662ZM9.36761 30.5662V30.2173H10.0316V30.5662H9.36761ZM10.0316 30.6432V30.7516L9.53056 30.6432H10.0316ZM9.28744 30.5662H9.17067L8.89966 30.5078L8.89182 30.5095L8.88311 30.2173H9.28656V30.5662H9.28744ZM8.54413 30.1394H7.88012V29.7922H8.54413V30.1394ZM7.80082 30.1394H7.54812L7.54899 29.7922H7.80082V30.1394ZM6.31072 30.1394H5.64671V29.7922H6.31072V30.1394ZM5.2964 30.1394H4.9034V29.7922H5.30337L5.2964 30.1394ZM4.82323 30.1394H4.15922V29.7922H4.82323V30.1394ZM4.82323 30.2173V30.5662H4.15922V30.2173H4.82323ZM4.07905 30.5662H3.41504V30.2173H4.07905V30.5662ZM4.07905 30.6432V30.8575L3.41504 30.9057V30.6432H4.07905ZM10.1109 30.7694V30.6441H10.7749V30.9117L10.1109 30.7694ZM10.1109 30.5662V30.2173H10.7749V30.5662H10.1109ZM10.8542 30.1394V29.7922H11.5191V30.1394H10.8542ZM10.7749 30.1394H10.1109V29.7922H10.7749V30.1394ZM10.0316 30.1394H9.36761V29.7922H10.0316V30.1394ZM9.28744 30.1394H8.88136L8.87178 29.7922H9.28744V30.1394ZM7.80082 29.7143H7.54986L7.55073 29.3655H7.79995V29.7143H7.80082ZM6.31072 29.7143H5.64671V29.3655H6.31072V29.7143ZM5.30511 29.7143H4.9034V29.3655H5.31296L5.30511 29.7143ZM4.82323 29.7143H4.15922V29.3655H4.82323V29.7143ZM4.07905 29.7922V30.1394H3.41504V29.7922H4.07905ZM3.33574 30.1394H2.67173V30.0268L2.86344 29.7922H3.33574V30.1394ZM2.59243 30.1394H2.58023L2.59243 30.1242V30.1394ZM2.6726 29.8397V29.7914H2.71181L2.6726 29.8397ZM2.59243 29.937L2.42687 30.1386H2.16718L2.19682 29.7914H2.59243V29.937ZM2.36412 30.2173L2.13756 30.4959L2.16109 30.2173H2.36412ZM2.51575 30.2173H2.59156V30.5662H2.22992L2.51575 30.2173ZM2.6726 30.2173H3.33661V30.5662H2.6726V30.2173ZM3.33574 30.6432V30.9108L2.67173 30.9582V30.6432H3.33574ZM5.58571 31.5205L6.37433 31.49L6.3691 32.4197L5.58309 31.6441L5.58571 31.5205ZM10.8542 30.9286V30.6432H11.5191V30.9904H11.1479L10.8542 30.9286ZM11.5975 30.6432H12.0594L12.089 30.9904H11.5984V30.6432H11.5975ZM12.0167 30.1394H11.5975V29.7922H11.9879L12.0167 30.1394ZM11.981 29.7143H11.5975V29.3655H11.9513L11.981 29.7143ZM11.5191 29.7143H10.8542V29.3655H11.5191V29.7143ZM10.7749 29.7143H10.1109V29.3655H10.7749V29.7143ZM10.0316 29.7143H9.36761V29.3655H10.0316V29.7143ZM9.28744 29.7143H8.86917L8.85958 29.3655H9.28744V29.7143ZM7.5516 29.2884L7.55421 28.7219L8.48574 27.4645L8.53803 29.2884H7.5516ZM7.64658 23.7489L7.57861 23.8319L7.57948 23.7557L7.64658 23.7489ZM7.58384 22.7743L7.58733 22.1189L8.03784 22.7379L7.58384 22.7743ZM6.40396 25.2706L5.69986 26.1317L5.74779 23.8861L5.81838 23.9014L6.41006 23.8514L6.40396 25.2706ZM6.40309 25.4577L6.38479 29.2876H5.63364L5.69638 26.3222L6.40309 25.4577ZM5.31383 29.2884H3.27474L5.36873 26.7245L5.31383 29.2884ZM3.33574 29.3655V29.7143H2.92705L3.212 29.3655H3.33574ZM2.77455 29.7143H2.67173V29.3655H3.05863L2.77455 29.7143ZM2.59243 29.7143H2.20291L2.23254 29.3655H2.59243V29.7143ZM2.16806 30.6432H2.59243V30.965L2.22644 30.9904H2.09573L2.11926 30.7025L2.16806 30.6432ZM2.08876 31.0734L5.02278 31.5408L5.26677 31.5306L5.20229 34.5747L2.07394 31.2478L2.08876 31.0734ZM5.57961 31.8058L6.3691 32.5831L6.35342 35.7974L5.51426 34.905L5.57961 31.8058ZM6.35168 35.9685L6.34993 36.2894L5.65978 36.4443L5.69464 36.9058H5.47155L5.51077 35.0743L6.35168 35.9685ZM5.14303 37.3351H4.51127V36.9846H5.15001L5.14303 37.3351ZM4.43022 37.3351H3.76012V36.9846H4.43022V37.3351ZM3.67994 37.3351H3.00984V36.9846H3.67994V37.3351ZM2.92966 37.3351H2.25956V36.9846H2.92966V37.3351ZM2.18026 37.3351H1.56156L1.59119 36.9846H2.18026V37.3351ZM1.50928 37.9448L1.51799 37.8432H2.18026V38.1954H1.50928V37.9448ZM2.26043 37.8432H2.93054V38.1954H2.26043V37.8432ZM2.92966 38.2734V38.5604H2.25956V38.2734H2.92966ZM3.76012 38.5604V38.2734H4.43022V38.5604H3.76012ZM4.51127 38.2734H5.12299L5.11689 38.5604H4.51127V38.2734ZM10.9222 36.9058L9.02253 35.0337L8.91709 31.3943L12.1117 31.2732L12.5857 36.905H10.9222V36.9058ZM11.506 31.0683H12.0942L12.1056 31.1979L11.506 31.0683ZM8.85697 29.2884L8.79335 27.0496L11.4546 23.4585L11.9452 29.2884H8.85697ZM8.67049 22.7828L8.59554 20.1291L11.283 23.3891L8.67049 22.7828ZM8.34981 22.7134L8.17553 22.7278L7.58733 21.92L7.60301 18.9275L8.26354 19.7294L8.34981 22.7134ZM7.60388 18.7421L7.61521 16.4313L8.16768 16.3585L8.25918 19.5363L7.60388 18.7421ZM5.90203 16.6624L6.44666 16.5888L6.44317 17.3348L5.90203 16.6794V16.6624ZM6.07457 9.79781L6.04843 9.76394L6.05104 9.60475L6.48326 8.86892L6.47977 9.74531L6.07457 9.79781ZM6.47803 9.90281L6.47715 10.3135L6.18611 9.94006L6.47803 9.90281ZM6.05714 9.36089L6.06759 8.84182L6.38305 8.80541L6.05714 9.36089ZM5.72949 9.78765L4.04855 9.07553L5.74866 8.87908L5.72949 9.78765ZM5.72513 9.95531L5.6894 11.6226L3.91784 9.34564L3.93004 9.19576L5.72513 9.95531ZM6.04407 9.95953L6.0493 9.95784L6.47541 10.5057L6.46496 12.6167L6.0005 12.0197L6.04407 9.95953ZM10.7357 14.919L10.2686 14.8326V14.4863L10.7052 14.5659L10.7357 14.919ZM6.4606 13.4558L6.45973 13.808L6.26715 13.8267V13.4736L6.4606 13.4558ZM9.45649 14.6836L8.80206 14.5634V14.2179L9.45649 14.3381V14.6836ZM9.53579 14.4372L9.77281 14.742L9.53579 14.6971V14.4372ZM8.72364 14.549L8.46919 14.5015C8.46919 14.4939 8.47093 14.4871 8.47093 14.4795L8.46658 14.4804V14.1569L8.72364 14.2043V14.549ZM5.94996 14.3635L6.18872 14.3423V14.6937L5.94211 14.7166L5.94996 14.3635ZM5.62318 14.7454L5.53429 14.7547V14.4042L5.63102 14.3948L5.62318 14.7454ZM6.26715 14.3347L6.45625 14.3169L6.45537 14.6692L6.26715 14.687V14.3347ZM8.11453 14.5125L7.95157 14.5286L7.73285 14.2475V14.195L8.10407 14.1603L8.11453 14.5125ZM8.11627 14.5904L8.12063 14.7445L8.00909 14.6006L8.11627 14.5904ZM7.6248 14.3009L7.65443 14.339V14.5566L7.62393 14.5591L7.6248 14.3009ZM7.73285 14.4397L7.81215 14.5422L7.73285 14.549V14.4397ZM7.62218 14.8978L7.62305 14.637L7.65443 14.6336V14.8936L7.62218 14.8978ZM7.73285 14.6269L7.86879 14.6133L8.04917 14.8453L7.73285 14.8834V14.6269ZM8.43956 14.7386C8.44914 14.6853 8.45612 14.6311 8.46047 14.5769L8.72277 14.6252V14.9486L8.44218 14.8563L8.43956 14.7386ZM8.47791 14.0824C8.47791 14.0697 8.47791 14.0587 8.47704 14.046L8.46658 14.0468V13.7369L8.72364 13.7835V14.1264L8.47791 14.0824ZM8.10233 14.0824L7.73372 14.1163V13.764L8.09274 13.7293L8.10233 14.0824ZM7.65443 14.1247L7.63874 14.1256L7.62567 14.1095L7.62741 13.7742L7.65443 13.7708V14.1247ZM6.45886 13.8859L6.45799 14.2373L6.26802 14.2551V13.9037L6.45886 13.8859ZM6.18872 14.2636L5.95257 14.2865L5.95955 13.9342L6.18872 13.9122V14.2636ZM5.63277 14.3161L5.53429 14.3254V13.9748L5.63974 13.9647L5.63277 14.3161ZM5.45587 14.3339L4.80145 14.3957V14.046L5.45587 13.9833V14.3339ZM4.72302 14.4033L4.06859 14.4651V14.1154L4.72302 14.0536V14.4033ZM3.9893 14.4736L3.48127 14.5219L3.51089 14.1705L3.98843 14.1239V14.4736H3.9893ZM3.9893 14.5515V14.9012L3.44554 14.9512L3.47516 14.5998L3.9893 14.5515ZM4.06859 14.543L4.72302 14.4804V14.8318L4.06859 14.8927V14.543ZM4.80145 14.4736L5.45587 14.4118V14.7623L4.80145 14.8242V14.4736ZM5.45587 14.8402V15.1578L4.80145 15.2374V14.902L5.45587 14.8402ZM5.53429 14.8335L5.62144 14.825L5.61447 15.1391L5.53429 15.1493V14.8335ZM5.94124 14.7954L6.1896 14.7725V15.0714L5.93515 15.1019L5.94124 14.7954ZM6.26715 14.7649L6.4545 14.7471L6.45363 15.0384L6.26715 15.0604V14.7649ZM8.80206 14.974V14.6404L9.45649 14.7615V15.107L8.87788 14.9986L8.80206 14.974ZM9.53579 14.775L9.84252 14.8309L10.158 15.2365L9.53579 15.1197V14.775ZM10.0177 14.8648L10.1902 14.8961V15.0875L10.0177 14.8648ZM9.94709 14.7733L9.63252 14.3703L10.1893 14.471V14.8191L9.94709 14.7733ZM10.2678 14.4092V14.0621L10.6686 14.1332L10.6982 14.4871L10.2678 14.4092ZM10.1902 14.394L9.5628 14.2797L9.53579 14.245V13.9283L10.1902 14.0485V14.394ZM9.45649 14.1434L9.24822 13.8775L9.45649 13.9156V14.1434ZM9.38765 14.2484L8.80206 14.1417V13.797L9.07482 13.8461L9.38765 14.2484ZM8.80206 13.72V13.4956L9.0051 13.7564L8.80206 13.72ZM8.72364 13.3957V13.7056L8.47267 13.659C8.47267 13.6438 8.4718 13.6285 8.47267 13.6124H8.46571V13.3127L8.69314 13.3542L8.72364 13.3957ZM8.08925 13.6497L7.73372 13.6836V13.3313L8.08054 13.2983L8.08925 13.6497ZM7.65443 13.692L7.62741 13.6954L7.62915 13.3415L7.65355 13.3389V13.692H7.65443ZM6.46496 12.8097L6.46147 13.3779L5.97087 13.4262L5.99614 12.2085L6.46496 12.8097ZM6.18872 13.482V13.8343L5.96129 13.8555L5.96913 13.5032L6.18872 13.482ZM5.64148 13.8859L5.53429 13.897V13.5464L5.64932 13.5354L5.64148 13.8859ZM5.45587 13.9046L4.80145 13.9689V13.6175L5.45587 13.5532V13.9046ZM4.72302 13.9757L4.06859 14.0392V13.6895L4.72302 13.626V13.9757ZM3.9893 14.046L3.51787 14.0917L3.54749 13.7411L3.9893 13.6971V14.046ZM3.43944 15.0291L3.99017 14.9774V15.3263L3.40981 15.3805L3.43944 15.0291ZM4.06859 15.3203V14.9706L4.72302 14.9088V15.2467L4.27424 15.3009L4.06859 15.3203ZM10.2286 15.328L10.3488 15.4838L9.41641 15.1772L10.2286 15.328ZM10.2678 15.1874V14.9114L10.7409 14.9994L10.7714 15.3534L10.3331 15.2704L10.2678 15.1874ZM10.6625 14.0553L10.2686 13.985V13.637L10.6329 13.7022L10.6625 14.0553ZM10.1902 13.9706L9.53579 13.8521V13.5049L10.1902 13.6226V13.9706ZM9.45649 13.8377L9.18026 13.7886L8.86742 13.3864L9.45737 13.4914V13.8377H9.45649ZM8.49969 13.2449C8.50317 13.2229 8.50579 13.1992 8.51014 13.1781L8.39512 13.1899L8.38815 12.9647L8.6243 13.267L8.49969 13.2449ZM8.07705 13.2195L7.63003 13.2627L7.63613 11.9968L8.05702 12.5396L8.07705 13.2195ZM7.637 11.8055L7.64658 9.75124L7.9751 9.7089L8.05091 12.3381L7.637 11.8055ZM7.64745 9.59629L7.65268 8.65808L7.94461 8.62506L7.97162 9.55479L7.64745 9.59629ZM8.26354 8.62251L9.92705 9.3033L8.28968 9.5133L8.26354 8.62251ZM7.94025 8.46841L7.65355 8.50227L7.6614 6.86211L7.8836 6.48276L7.94025 8.46841ZM7.66314 6.62502L7.67883 3.30065L7.79124 3.28287L7.87751 6.26091L7.66314 6.62502ZM6.48413 8.63268L6.48152 8.6369L6.07108 8.68517L6.14079 5.42008L6.5033 4.80279L6.48413 8.63268ZM5.75127 8.72158L4.08863 8.91464L5.80966 5.98317L5.75127 8.72158ZM3.90303 9.51838L5.68592 11.8089L5.65019 13.4566L3.55359 13.6616L3.90303 9.51838ZM5.89767 16.8597L6.44143 17.5202L6.42749 20.3221L5.84016 19.5143L5.89767 16.8597ZM6.42661 20.5228L6.41529 22.8683L5.76784 22.92L5.83667 19.7099L6.42661 20.5228ZM5.4306 23.8142L5.37309 26.5331L3.12225 29.2884H2.23864L2.74928 23.2265L5.4306 23.8142ZM5.19794 34.7432L5.15262 36.9058H1.59729L2.06 31.4078L5.19794 34.7432ZM1.50928 38.2734H2.18026V38.5604H1.50928V38.2734ZM8.81426 38.8644L8.90489 42.0389L7.58733 43.1278L7.52981 39.9L8.81426 38.8644ZM9.21686 41.7823L9.13059 38.8195H12.6955L12.7443 38.8678L9.21686 41.7823ZM11.4494 23.406L8.58857 19.9377L8.48487 16.317L10.8263 16.0028L11.4494 23.406ZM10.551 15.549L10.4037 15.3593L10.7784 15.4287L10.795 15.6286L10.551 15.549ZM8.79771 13.2983L8.38205 12.764L8.29316 9.66995L10.2713 9.41422L10.6259 13.6243L8.79771 13.2983ZM9.72837 2.96957L9.73796 3.08896L8.18075 5.74185L8.10843 3.23207L9.72837 2.96957ZM6.5094 3.4048L6.50417 4.56486L6.14602 5.17706L6.18262 3.42851L6.5094 3.4048ZM5.76609 3.45646L5.86369 3.44969L5.81489 5.74016L3.95531 8.90871L4.47467 2.73671C5.00187 3.07202 5.76609 3.45646 5.76609 3.45646ZM5.58396 16.5973L5.53081 19.0867L3.35055 16.0858L3.36885 15.8792L5.58396 16.5973ZM5.4306 38.8195H6.26889L6.61658 39.2852L6.62704 40.4791L5.37396 41.4902L5.4306 38.8195ZM5.37047 41.6443L6.62791 40.6307L6.65754 43.8967L5.4489 44.895L5.30076 44.9043L5.37047 41.6443ZM1.84477 45.2667L4.97921 45.0787L4.97485 45.2726H4.54438V45.4064L1.84477 45.2667ZM5.73907 45.4674V45.2726H5.29291L5.29553 45.1744L5.44541 45.0508L6.66712 44.9771L6.66887 45.1693L6.60961 45.221H6.11117V45.4869L5.73907 45.4674ZM8.05091 45.4115V45.2201H7.62567L7.62044 44.9204L8.98594 44.8382L9.00075 45.3497H8.55546V45.3819L8.05091 45.4115ZM9.31881 45.337L9.30487 44.8569L12.4925 45.1515L9.31881 45.337Z" fill="white"/>
</svg>
