<svg width="37" height="30" viewBox="0 0 37 30" fill="none" xmlns="http://www.w3.org/2000/svg">
<path fill-rule="evenodd" clip-rule="evenodd" d="M19.782 8.64828C19.9237 8.64171 20.1719 8.6293 20.246 8.70012C20.3201 8.79722 20.395 8.89469 20.4694 8.99216C20.4464 9.02063 20.4234 9.04911 20.4004 9.07794C20.349 9.12358 20.2975 9.16921 20.246 9.2152C21.2422 15.4878 22.2395 21.7623 23.2361 28.035C23.7633 28.3098 24.2904 28.5847 24.8175 28.8596C24.7945 29.0947 24.7715 29.3298 24.7489 29.5642C16.4999 29.6273 8.24902 29.6905 0 29.7536C0.154416 29.7021 0.30956 29.6503 0.463976 29.5988C0.469817 29.4097 0.475668 29.221 0.481144 29.0315C0.630084 28.9742 0.779018 28.9169 0.928688 28.8596C0.962638 27.6856 0.997322 26.5109 1.03164 25.3365C1.46093 25.331 1.89096 25.3252 2.32026 25.3194C2.28558 24.3801 2.25163 23.4405 2.21731 22.5008C2.30857 22.415 2.40056 22.3289 2.49219 22.2431C3.00764 22.2372 3.52346 22.2314 4.03891 22.2259C4.45105 22.1146 5.7426 21.571 5.94666 21.2805C5.26511 20.0261 4.58356 18.7711 3.90129 17.5164C3.70051 17.1715 3.49937 16.3231 3.90129 16.0212C4.37184 15.6682 5.28373 16.0785 5.65462 16.2793C6.70706 16.848 7.45833 17.6387 8.28407 18.4272C8.55348 18.7079 8.82288 18.9887 9.09192 19.2694C8.15813 16.2734 7.22433 13.2764 6.29053 10.2808C5.3633 10.1191 5.62506 8.55812 5.63747 7.54802C4.77632 7.3958 4.53866 6.70293 4.24553 5.98379C4.12177 5.68153 3.98014 5.45154 3.9878 5.05583C4.02723 5.01568 4.06775 4.97552 4.10791 4.93536C4.19333 4.92952 4.27985 4.92368 4.366 4.91821C4.37147 4.24834 4.37695 3.57775 4.38279 2.90752C11.0336 3.69821 17.6859 4.48891 24.3368 5.27924C25.9923 5.47418 27.6481 5.66875 29.3036 5.86369C29.6179 5.92465 30.9533 6.109 31.1077 6.0181C31.9962 4.72911 32.884 3.44012 33.7722 2.15113C34.0095 1.7985 34.3172 1.0235 34.8202 0.965088C35.125 1.2115 35.2123 1.58275 35.3704 1.97919C35.7624 2.96483 36.003 4.02092 36.264 5.21025C36.4597 6.10389 36.5615 7.10339 36.728 8.06347C36.7221 8.30404 36.7163 8.54461 36.7108 8.78554C36.7046 9.06042 36.6992 9.33531 36.6933 9.61055C36.5718 10.3509 36.509 11.1901 36.3837 11.8447C36.3896 13.426 36.3951 15.0071 36.4013 16.5885C36.4392 16.6779 36.5728 16.7695 36.5904 16.8977C36.6141 17.0733 36.4447 17.2237 36.4013 17.327C36.4071 18.3356 36.4126 19.3439 36.4184 20.3521C36.4987 20.4379 36.5787 20.5241 36.6586 20.6099C36.6648 20.7931 36.6703 20.9767 36.6762 21.16C36.2476 21.5028 36.4356 22.6819 36.4356 23.4284C36.4414 25.5366 36.4469 27.6451 36.4528 29.7532C36.367 29.7419 36.2808 29.7302 36.195 29.7189C36.2009 26.9351 36.2063 24.1501 36.2125 21.3662C36.1377 21.2918 36.0632 21.2169 35.9891 21.1428C35.9891 20.9822 35.9891 20.822 35.9891 20.6617C36.0632 20.5755 36.1377 20.4898 36.2125 20.4036C36.2125 19.6304 36.2125 18.8565 36.2125 18.0833C36.2125 17.8026 36.2125 17.5219 36.2125 17.2412C36.1691 17.1258 35.9767 17.0101 36.0402 16.7944C36.0647 16.7115 36.18 16.6659 36.2125 16.6053C36.2125 15.6372 36.2125 14.6687 36.2125 13.7006C36.2063 13.3169 36.2009 12.9329 36.195 12.5492C36.0235 13.0132 35.8511 13.4772 35.6796 13.9415C35.2324 15.0695 34.8202 16.0854 34.253 17.0521C33.9463 17.5745 33.5725 18.394 33.1355 18.7707C32.9238 18.6503 32.7121 18.5302 32.5 18.4101C32.3624 17.6482 32.2247 16.886 32.0875 16.1238C31.8356 14.8005 31.583 13.4772 31.3315 12.1539C31.1997 11.4493 31.0675 10.7444 30.9361 10.0399C30.8649 9.87558 30.7072 9.81425 30.5922 9.69634C30.1407 9.78687 29.6011 9.62369 29.2175 9.42146C29.1773 9.31231 29.1371 9.20352 29.097 9.09474C28.3695 9.00895 27.6423 8.9228 26.9144 8.83665C24.4335 8.52161 21.9526 8.20657 19.4721 7.8919C19.4721 8.02332 19.4721 8.15547 19.4721 8.28725C19.5813 8.31025 19.69 8.33288 19.7988 8.35588C19.7933 8.45371 19.7879 8.55081 19.782 8.64828ZM33.4455 3.38902C33.1881 3.80736 32.93 4.22571 32.6723 4.64406C33.0735 5.18834 33.4743 5.73263 33.8755 6.27656C34.2694 6.28605 34.5851 6.3576 34.8038 6.19077C34.9809 5.97868 35.159 5.76658 35.3364 5.55485C35.1415 4.83279 34.9469 4.11072 34.7516 3.38902C34.3161 3.38902 33.881 3.38902 33.4455 3.38902ZM5.15597 5.5377C5.09792 5.58004 5.06944 5.58771 5.03549 5.65816C5.03549 5.70963 5.03549 5.76147 5.03549 5.81258C5.07017 5.84142 5.10412 5.86989 5.1388 5.89837C5.19027 5.89837 5.24174 5.89837 5.29322 5.89837C5.32206 5.86442 5.35054 5.82974 5.37938 5.79542C5.37938 5.74395 5.37938 5.69248 5.37938 5.64064C5.3447 5.6118 5.31038 5.58333 5.27643 5.55485C5.23627 5.54901 5.19649 5.54317 5.15597 5.5377ZM6.39348 5.69248C6.33507 5.73519 6.30696 5.74212 6.27337 5.81258C6.27337 5.86442 6.27337 5.91552 6.27337 5.96736C6.30769 5.99583 6.34201 6.02467 6.37632 6.05315C6.42779 6.05315 6.47927 6.05315 6.53074 6.05315C6.55958 6.01847 6.58805 5.98415 6.61689 5.94984C6.61689 5.898 6.61689 5.84653 6.61689 5.79506C6.58257 5.76622 6.54825 5.73774 6.51394 5.7089C6.47378 5.70379 6.43327 5.69795 6.39348 5.69248ZM17.6852 7.78932C15.2682 7.49692 12.8497 7.20488 10.4328 6.91247C9.52232 6.75368 7.98655 6.84275 7.39079 6.37987C7.31596 6.37987 7.24149 6.37987 7.16738 6.37987C7.02939 6.64343 6.89251 6.907 6.75452 7.17056C6.96004 7.56628 7.12103 7.98243 7.21849 8.51102C7.30903 8.99909 6.98741 9.43789 7.06371 9.83433C8.11797 13.111 9.17187 16.3884 10.2261 19.6651C11.406 19.1727 12.5865 18.6798 13.7667 18.1874C14.015 18.0815 14.8882 17.8304 15.0043 17.6544C15.6223 15.0425 16.2414 12.4295 16.8602 9.81717C16.7058 9.66823 16.5506 9.51929 16.3962 9.37035C16.4072 9.35903 16.4192 9.34735 16.4301 9.33604C16.505 9.24988 16.5794 9.1641 16.6536 9.07831C16.5981 8.97938 16.5371 8.90966 16.5506 8.78627C16.7788 8.55994 17.2548 8.45262 17.6337 8.39092C17.6505 8.19015 17.668 7.98937 17.6852 7.78932ZM33.6689 7.17056C33.6517 7.98389 33.6342 8.79759 33.6174 9.61128C33.9266 9.67991 34.2358 9.74854 34.5454 9.81717C34.7728 9.85185 35.3737 9.52477 35.5766 9.43898C35.5766 8.91221 35.5766 8.38472 35.5766 7.85795C35.2729 7.62906 34.9696 7.39981 34.6655 7.17056C34.3333 7.17056 34.0011 7.17056 33.6689 7.17056ZM6.82314 10.0574C6.71545 10.1315 6.59389 10.118 6.58294 10.2983C7.585 13.483 8.58815 16.6691 9.59021 19.8542C9.69316 19.8312 9.79647 19.8082 9.89978 19.7856C8.87399 16.5432 7.84857 13.2997 6.82314 10.0574ZM33.4798 10.6247C33.0446 11.1 32.6091 11.576 32.1736 12.0513C32.4711 13.472 32.7694 14.8928 33.0673 16.3136C33.1589 16.3136 33.2509 16.3136 33.3422 16.3136C33.494 16.28 33.8781 16.3373 33.9609 16.2274C34.4822 14.7497 35.0035 13.2713 35.5248 11.7935C35.0951 11.4037 34.6655 11.0145 34.2358 10.6247C33.9839 10.6247 33.732 10.6247 33.4798 10.6247ZM17.3242 12.3951C17.3242 11.8793 17.3242 11.3639 17.3242 10.8484C17.2723 10.8652 17.2212 10.8827 17.1694 10.8999C17.1237 11.1292 17.0777 11.358 17.0317 11.5873C16.981 11.7669 16.7609 11.945 16.7915 12.1203C16.8197 12.2115 16.8485 12.3035 16.877 12.3951C17.0263 12.3951 17.1752 12.3951 17.3242 12.3951ZM17.6852 10.8999C17.6852 11.3756 17.6852 11.8509 17.6852 12.3265C18.1379 12.3495 18.5905 12.3722 19.0432 12.3951C19.0432 11.8793 19.0432 11.3639 19.0432 10.8484C18.5905 10.8652 18.1379 10.8824 17.6852 10.8999ZM19.7477 12.4123C19.7269 11.9155 19.6959 11.2124 19.3867 10.9857C19.3867 11.4497 19.3867 11.9136 19.3867 12.3776C19.5072 12.3893 19.6273 12.401 19.7477 12.4123ZM19.3867 13.2373C19.3867 13.8386 19.3867 14.4402 19.3867 15.0418C19.6963 15.2823 20.0054 15.5229 20.315 15.7638C20.1887 14.9213 20.0631 14.0791 19.9368 13.2373C19.7535 13.2373 19.5699 13.2373 19.3867 13.2373ZM17.6852 13.2716C17.6852 13.3863 17.6852 13.5009 17.6852 13.6151C18.1379 13.9992 18.5905 14.3828 19.0432 14.7669C19.0432 14.2686 19.0432 13.7699 19.0432 13.2713C18.5905 13.2716 18.1379 13.2716 17.6852 13.2716ZM17.3242 16.9323C17.3242 16.1818 17.3242 15.4316 17.3242 14.6811C17.0836 14.446 16.843 14.2116 16.6025 13.9765C16.6025 13.9879 16.6025 13.9995 16.6025 14.0109C16.4364 14.7267 16.2699 15.4433 16.1038 16.1592C16.0381 16.418 15.9005 16.802 16.0695 16.967C16.4875 16.9553 16.9062 16.944 17.3242 16.9323ZM17.6852 16.9842C18.1379 16.9951 18.5905 17.0072 19.0432 17.0185C19.0479 16.7484 19.103 16.2946 19.0089 16.0905C18.5679 15.7124 18.1262 15.3342 17.6852 14.9563C17.6852 15.6317 17.6852 16.3077 17.6852 16.9842ZM19.3867 16.4341C19.3808 16.5848 19.3436 16.9345 19.4214 17.0185C19.6046 17.0415 19.7879 17.0645 19.9711 17.0871C19.8441 16.8152 19.6134 16.6027 19.3867 16.4341ZM17.2902 17.9121C16.793 17.9012 16.0903 17.7501 15.7606 17.9636C15.8004 18.0038 15.841 18.0439 15.8811 18.0841C16.0071 18.2275 16.1326 18.3706 16.2589 18.5141C16.5313 18.9127 16.643 19.3771 16.6368 20.0093C16.8602 19.8604 17.084 19.7115 17.3074 19.5622C17.3015 19.0124 17.2953 18.4619 17.2902 17.9121ZM17.6852 17.9293C17.691 18.4046 17.6965 18.8803 17.7027 19.3555C17.7137 19.3446 17.7257 19.3325 17.737 19.3216C18.1722 19.0467 18.608 18.7715 19.0432 18.4966C19.0432 18.3016 19.0432 18.1071 19.0432 17.9121C18.5905 17.9176 18.1379 17.9235 17.6852 17.9293ZM19.3867 17.9121C19.3925 18.0384 19.3984 18.1644 19.4038 18.2903C19.5984 18.1644 19.7934 18.0384 19.9883 17.9121C19.7879 17.9121 19.5875 17.9121 19.3867 17.9121ZM19.3867 21.5729C19.9879 21.5787 20.5899 21.5842 21.1911 21.5896C20.9966 20.5416 20.802 19.4932 20.6067 18.4444C20.2 18.7193 19.793 18.9945 19.3863 19.2694C19.3867 20.0375 19.3867 20.8052 19.3867 21.5729ZM17.6852 21.5729C18.1379 21.5729 18.5905 21.5729 19.0432 21.5729C19.0432 20.857 19.0432 20.1404 19.0432 19.4245C18.5909 19.7107 18.1382 19.9973 17.6852 20.2839C17.6852 20.7135 17.6852 21.1432 17.6852 21.5729ZM17.3242 21.4695C17.3242 21.1374 17.3242 20.8048 17.3242 20.4726C16.8259 20.8106 16.3272 21.1487 15.8285 21.4867C16.3272 21.4812 16.8259 21.4758 17.3242 21.4695ZM12.0309 25.3022C12.2624 25.3062 13.236 25.3748 13.3371 25.2854C13.6236 24.088 13.9102 22.8903 14.1964 21.693C14.1617 21.6645 14.1274 21.6356 14.0931 21.6072C13.1651 22.0372 12.2372 22.4665 11.3089 22.8962C11.6469 23.6288 11.9601 24.2823 12.0309 25.3022ZM20.8819 22.3636C20.8819 22.6443 20.8819 22.9254 20.8819 23.2057C20.9911 23.2057 21.0999 23.2057 21.2086 23.2057C21.2086 22.9254 21.2086 22.6443 21.2086 22.3636C21.0995 22.3636 20.9907 22.3636 20.8819 22.3636ZM19.5071 22.3975C19.5071 22.6611 19.5071 22.925 19.5071 23.1882C19.885 23.1882 20.2632 23.1882 20.6414 23.1882C20.6414 22.925 20.6414 22.6611 20.6414 22.3975C20.2632 22.3975 19.885 22.3975 19.5071 22.3975ZM19.2662 22.4665C17.9144 22.4607 16.5623 22.4552 15.2105 22.4497C15.2218 22.4497 15.2335 22.4497 15.2448 22.4497C16.5853 23.0911 17.9265 23.7329 19.2666 24.3746C19.2662 23.7383 19.2662 23.1024 19.2662 22.4665ZM14.7809 23.24C14.6432 23.9274 14.506 24.6152 14.3684 25.3022C15.9092 25.3022 17.4505 25.3022 18.9913 25.3022C18.9399 25.2449 18.8884 25.1876 18.8366 25.1303C17.4848 24.5006 16.1326 23.8701 14.7809 23.24ZM19.4725 23.4291C19.4725 23.7843 19.4725 24.1395 19.4725 24.4947C19.862 24.7181 20.2519 24.9415 20.6414 25.1649C20.6414 24.5863 20.6414 24.0077 20.6414 23.4291C20.2519 23.4291 19.8623 23.4291 19.4725 23.4291ZM20.8819 23.4463C20.8819 23.9559 20.8819 24.4659 20.8819 24.9758C20.9849 24.9758 21.0882 24.9758 21.1915 24.9758C21.1915 24.4659 21.1915 23.9559 21.1915 23.4463C21.0882 23.4463 20.9849 23.4463 20.8819 23.4463ZM21.3288 25.354C21.4777 25.354 21.6263 25.354 21.7756 25.354C21.6613 24.747 21.5467 24.1392 21.432 23.5324C21.3974 24.1392 21.3631 24.747 21.3288 25.354ZM7.64816 24.4776C7.28165 24.6604 6.91514 24.8441 6.54826 25.027C6.58805 25.1127 6.62857 25.1989 6.66873 25.2854C7.16118 25.2683 7.65363 25.2507 8.14645 25.2336C8.1355 25.2223 8.12345 25.2106 8.11213 25.1993C8.05519 25.0218 7.81425 24.548 7.64816 24.4776ZM7.99203 28.9458C8.56552 28.9527 9.66322 29.1217 10.0027 28.8428C9.37228 27.7199 8.74257 26.597 8.11213 25.4741C8.0665 25.5026 8.0205 25.5311 7.9745 25.5599C7.98035 26.6883 7.98582 27.8174 7.99203 28.9458ZM6.6512 25.5428C6.6282 26.6773 6.60557 27.8116 6.58258 28.9458C6.9834 28.9571 7.38422 28.9688 7.78541 28.9801C7.76825 27.817 7.75073 26.654 7.73357 25.4913C7.37327 25.5085 7.01223 25.5256 6.6512 25.5428ZM17.0836 25.5085C17.0836 25.6975 17.0836 25.8866 17.0836 26.0757C17.8166 26.0757 18.5504 26.0757 19.2834 26.0757C19.2834 25.8866 19.2834 25.6975 19.2834 25.5085C18.5504 25.5085 17.8166 25.5085 17.0836 25.5085ZM14.8666 25.5256C14.8666 25.7089 14.8666 25.8925 14.8666 26.0757C15.5423 26.0757 16.2184 26.0757 16.8949 26.0757C16.8949 25.8925 16.8949 25.7089 16.8949 25.5256C16.2184 25.5256 15.5423 25.5256 14.8666 25.5256ZM19.5243 26.0586C19.8736 26.0356 20.223 26.013 20.5727 25.99C20.2172 25.8348 19.8623 25.6804 19.5071 25.5256C19.5126 25.7034 19.5185 25.8808 19.5243 26.0586ZM14.2994 25.5428C14.2994 25.7147 14.2994 25.8866 14.2994 26.0586C14.4253 26.0586 14.5512 26.0586 14.6775 26.0586C14.6775 25.887 14.6775 25.7151 14.6775 25.5428C14.5516 25.5428 14.4253 25.5428 14.2994 25.5428ZM1.18569 25.6289C1.20284 26.7175 1.22037 27.8061 1.23752 28.8947C1.59819 28.8947 1.95959 28.8947 2.32026 28.8947C2.32026 27.7893 2.32026 26.6832 2.32026 25.5778C1.94243 25.5946 1.56388 25.6118 1.18569 25.6289ZM12.0996 28.9458C12.0996 28.8483 12.0996 28.7508 12.0996 28.6534C12.2255 28.5333 12.3514 28.4132 12.4778 28.2927C12.4548 27.422 12.4318 26.551 12.4088 25.6804C12.2887 25.6457 12.1686 25.6118 12.0485 25.5771C12.0565 26.3043 12.1488 27.1742 11.9795 27.8283C11.8648 28.2726 11.5849 28.5256 11.4812 28.9454C11.6867 28.9458 11.8933 28.9458 12.0996 28.9458ZM12.718 25.5774C12.741 26.3736 12.764 27.1702 12.7866 27.9663C12.9527 27.1756 13.1188 26.3853 13.2849 25.5946C13.2849 25.5888 13.2849 25.5833 13.2849 25.5774C13.0961 25.5774 12.9071 25.5774 12.718 25.5774ZM20.8304 26.8664C20.8304 27.2041 20.8304 27.5429 20.8304 27.8805C20.9447 27.8805 21.0597 27.8805 21.174 27.8805C21.174 27.5429 21.174 27.2041 21.174 26.8664C21.0597 26.8664 20.9447 26.8664 20.8304 26.8664ZM21.7413 26.8664C21.7413 27.4162 21.7413 27.9663 21.7413 28.5165C21.8789 28.5165 22.0161 28.5165 22.1537 28.5165C22.1537 27.9663 22.1537 27.4162 22.1537 26.8664C22.0161 26.8664 21.8789 26.8664 21.7413 26.8664ZM21.3463 26.8836C21.3463 27.4505 21.3463 28.0182 21.3463 28.5851C21.4262 28.5851 21.5062 28.5851 21.5865 28.5851C21.5865 28.0182 21.5865 27.4509 21.5865 26.8836C21.5065 26.8836 21.4262 26.8836 21.3463 26.8836ZM13.8529 28.6366C14.1044 28.6424 14.3567 28.6482 14.6089 28.6537C14.6144 28.0813 14.6202 27.5082 14.6257 26.9351C14.4541 26.9351 14.2822 26.9351 14.1103 26.9351C14.0292 27.51 13.8565 27.9645 13.8529 28.6366ZM14.8666 26.9351C14.8666 27.5082 14.8666 28.0813 14.8666 28.6537C14.9926 28.6537 15.1185 28.6537 15.2445 28.6537C15.2445 28.7457 15.2445 28.837 15.2445 28.929C15.7884 28.929 16.333 28.929 16.8773 28.929C16.8773 28.2646 16.8773 27.5995 16.8773 26.9351C16.2075 26.9351 15.5369 26.9351 14.8666 26.9351ZM17.1011 26.9351C17.1011 27.5995 17.1011 28.2646 17.1011 28.929C17.8228 28.929 18.5445 28.929 19.2662 28.929C19.2662 28.2646 19.2662 27.5995 19.2662 26.9351C18.5445 26.9351 17.8228 26.9351 17.1011 26.9351ZM19.4725 26.9351C19.4725 27.2446 19.4725 27.5538 19.4725 27.863C19.8791 27.863 20.2862 27.863 20.6928 27.863C20.6928 27.5535 20.6928 27.2443 20.6928 26.9351C20.2862 26.9351 19.8795 26.9351 19.4725 26.9351ZM19.4382 28.0864C19.4382 28.3613 19.4382 28.6362 19.4382 28.9114C19.8507 28.9114 20.2632 28.9114 20.6757 28.9114C20.6757 28.6362 20.6757 28.3613 20.6757 28.0864C20.2632 28.0864 19.8507 28.0864 19.4382 28.0864ZM20.8133 28.104C20.8133 28.3734 20.8133 28.6424 20.8133 28.9118C20.9392 28.9118 21.0648 28.9118 21.1911 28.9118C21.1911 28.6424 21.1911 28.3734 21.1911 28.104C21.0652 28.104 20.9392 28.104 20.8133 28.104Z" fill="white"/>
</svg>
