<svg width="19" height="20" viewBox="0 0 19 20" fill="none" xmlns="http://www.w3.org/2000/svg">
<path fill-rule="evenodd" clip-rule="evenodd" d="M18.2629 18.3681C18.2629 18.3681 8.87092 21.2724 0.157195 18.4652L0.109375 2.44133C0.109375 2.44133 6.12503 0.242638 13.4417 1.14541C13.5344 0.975293 14.0196 0.11414 14.3908 0.092602C14.8019 0.0688738 15.0439 0.455457 15.0439 0.455457L14.9873 1.38086C15.1071 1.4024 15.2257 1.42613 15.3454 1.44949C15.3849 1.15015 15.5608 0.237157 16.2307 0.359449C16.7892 0.460932 16.8502 1.29581 16.837 1.78899C17.3101 1.91128 17.7862 2.04452 18.2629 2.19893V18.3681ZM14.5354 0.625215C14.2996 0.571187 13.9287 0.977843 13.7571 1.18556C14.0663 1.22717 14.377 1.2739 14.6909 1.32793C14.7274 1.08006 14.7533 0.674861 14.5354 0.625215ZM16.1573 0.91579C15.9328 0.777437 15.7718 1.23995 15.6966 1.51812C15.9452 1.57105 16.1949 1.62763 16.4453 1.68787C16.4121 1.39108 16.3358 1.02567 16.1573 0.91579ZM16.7615 1.85981H16.4713V3.09477H15.0191V1.85907H14.7285V18.851H15.0191V17.7858H16.4713V18.6437C16.5622 18.6236 16.6636 18.6185 16.7615 18.609V1.85981ZM15.0191 16.3581H16.4713V17.4956H15.0191V16.3581ZM15.0191 14.9052H16.4713V16.0679H15.0191V14.9052ZM15.0191 13.4775H16.4713V14.6154H15.0191V13.4775ZM15.0191 12.0253H16.4713V13.188H15.0191V12.0253ZM15.0191 10.5973H16.4713V11.7348H15.0191V10.5973ZM15.0191 9.14473H16.4713V10.3078H15.0191V9.14473ZM15.0191 7.71702H16.4713V8.85488H15.0191V7.71702ZM15.0191 6.2645H16.4713V7.42718H15.0191V6.2645ZM15.0191 4.83679H16.4713V5.97501H15.0191V4.83679ZM15.0191 3.38462H16.4713V4.5473H15.0191V3.38462Z" fill="white"/>
</svg>
